<svg id="Layer_2" data-name="Layer 2" xmlns="http://www.w3.org/2000/svg" viewBox="0 0 58.5 58.5"><defs><style>.cls-1{fill:#2d358e;}.cls-2{fill:#fff;}</style></defs><rect class="cls-1" width="58.5" height="58.5" rx="6.48"/><path class="cls-2" d="M4.35,3.66H8.46A25.1,25.1,0,0,1,13.85,4,4,4,0,0,1,16,5.23a3.8,3.8,0,0,1,.92,1.86,28.57,28.57,0,0,1,.18,4v7.4a17.08,17.08,0,0,1-.27,3.81,2.82,2.82,0,0,1-.93,1.5,4,4,0,0,1-1.64.76,15.36,15.36,0,0,1-3,.21H4.35Zm5.5,3.62v13.9c.79,0,1.28-.15,1.46-.47a7.08,7.08,0,0,0,.27-2.59V9.9a11.24,11.24,0,0,0-.09-1.84.86.86,0,0,0-.41-.59A2.68,2.68,0,0,0,9.85,7.28Z"/><path class="cls-2" d="M35.6,31.61c0,2.13-.05,3.63-.15,4.51a5,5,0,0,1-.94,2.42,5,5,0,0,1-2.13,1.69,7.82,7.82,0,0,1-3.14.59,8,8,0,0,1-3-.56A5,5,0,0,1,24,38.6a5.06,5.06,0,0,1-1-2.42,45.65,45.65,0,0,1-.16-4.57V28c0-2.13.06-3.63.16-4.52a5,5,0,0,1,3.07-4.1,7.8,7.8,0,0,1,3.13-.59,8.13,8.13,0,0,1,3.05.55A5.06,5.06,0,0,1,34.47,21a5.12,5.12,0,0,1,1,2.42c.1.87.15,2.39.15,4.57Zm-5.5-6.94a6.53,6.53,0,0,0-.16-1.89.64.64,0,0,0-.67-.41.75.75,0,0,0-.66.33,4.77,4.77,0,0,0-.23,2v9.87a9.76,9.76,0,0,0,.15,2.27.65.65,0,0,0,.7.43.69.69,0,0,0,.72-.5,10.9,10.9,0,0,0,.15-2.36Z"/><path class="cls-2" d="M53.87,41.65h-5.5V39.73a9.16,9.16,0,0,0-.16-2.27.82.82,0,0,0-1.43-.06,6,6,0,0,0-.19,2V49.55a5.77,5.77,0,0,0,.19,1.88.71.71,0,0,0,.73.45.8.8,0,0,0,.81-.51,5.77,5.77,0,0,0,.22-2v-2.5H47.43V43.66h6.44V55H50.41L49.9,53.5A3.75,3.75,0,0,1,48.49,55a4,4,0,0,1-2,.49,5.25,5.25,0,0,1-2.6-.67A5,5,0,0,1,42,53.12,5.36,5.36,0,0,1,41.25,51a26.26,26.26,0,0,1-.15-3.28V41.48a21.73,21.73,0,0,1,.32-4.4,4.55,4.55,0,0,1,1.88-2.51,6.56,6.56,0,0,1,4-1.14,7.47,7.47,0,0,1,4,1,4.67,4.67,0,0,1,2.07,2.36,12.22,12.22,0,0,1,.49,4Z"/></svg>